<?xml version="1.0" encoding="utf-8"?>
<!-- Generator: Adobe Illustrator 27.5.0, SVG Export Plug-In . SVG Version: 6.00 Build 0)  -->
<svg version="1.1" xmlns="http://www.w3.org/2000/svg" xmlns:xlink="http://www.w3.org/1999/xlink" x="0px" y="0px"
	 viewBox="0 0 500 500" style="enable-background:new 0 0 500 500;" xml:space="preserve">
<g id="BACKGROUND">
	<rect style="fill:#EEF5FF;" width="500" height="500"/>
</g>
<g id="OBJECTS">
	<g>
		<g>
			<path style="fill:#99D3FF;" d="M413.655,225.944H285.357c-9.387,0-17.067-7.68-17.067-17.067l0,0
				c0-9.387,7.68-17.067,17.067-17.067h128.298c9.387,0,17.067,7.68,17.067,17.067l0,0
				C430.723,218.263,423.042,225.944,413.655,225.944z"/>
			<path style="fill:#99D3FF;" d="M386.834,270.988h-73.569c-9.387,0-17.067-7.68-17.067-17.067l0,0
				c0-9.387,7.68-17.067,17.067-17.067h73.569c9.387,0,17.067,7.68,17.067,17.067l0,0
				C403.902,263.307,396.221,270.988,386.834,270.988z"/>
			<path style="fill:#99D3FF;" d="M406.514,176.244h-19.923c-7.628,0-13.868-6.241-13.868-13.868l0,0
				c0-7.628,6.241-13.868,13.868-13.868h19.923c7.628,0,13.868,6.241,13.868,13.868l0,0
				C420.383,170.003,414.142,176.244,406.514,176.244z"/>
			<path style="fill:#99D3FF;" d="M344.31,175.998h-81.615c-7.56,0-13.746-6.185-13.746-13.745v0c0-7.56,6.186-13.745,13.746-13.745
				h81.615c7.56,0,13.746,6.185,13.746,13.745v0C358.056,169.813,351.87,175.998,344.31,175.998z"/>
			<path style="fill:#99D3FF;" d="M218.67,140.458h-99.974c-13.636,0-24.792,11.157-24.792,24.792l0,0
				c0,13.636,11.157,24.792,24.792,24.792h27.064c2.925,0,5.297,2.371,5.297,5.297l0,0c0,2.925-2.371,5.297-5.297,5.297H85.458
				c-13.636,0-24.792,11.157-24.792,24.792l0,0c0,13.636,11.157,24.792,24.792,24.792h99.974c13.636,0,24.792-11.157,24.792-24.792
				l0,0c0-3.784-0.862-7.376-2.395-10.593h16.32v-25.415c11.021-2.512,19.313-12.417,19.313-24.17l0,0
				C243.462,151.615,232.306,140.458,218.67,140.458z"/>
		</g>
		<g>
			<g>
				<polygon style="fill:#BBE2FF;" points="270.745,446.133 429.354,354.56 224.727,236.497 66.117,328.071 				"/>
				<polygon style="fill:#3989D1;" points="270.745,423.026 429.354,331.453 224.727,213.39 66.117,304.963 				"/>
				<polygon style="fill:#1E62A5;" points="270.745,423.026 270.745,429.14 429.354,337.558 429.354,331.453 				"/>
				<polygon style="fill:#2C6AB5;" points="270.745,429.14 66.117,311.072 66.117,304.963 270.745,423.026 				"/>
			</g>
			<path style="fill:#1B65A8;" d="M333.112,360.667l48.82-22.085c11.646-6.466,11.536-22.668-0.196-28.987L227.638,226.59
				l-82.096,36.475c-5.532,3.072-5.48,10.767,0.093,13.769l143.185,84.11C302.602,368.368,319.431,368.263,333.112,360.667z"/>
			<path style="fill:#EAB18B;" d="M224.489,98.86l1.831-0.501c0,0,1.25-1.68,1.649-2.039c0.399-0.359,1.867-0.76,2.714-0.99
				c1.325-0.36,1.35,2.088,1.493,2.776c0.143,0.688-0.075,1.575-1.328,1.707c-1.253,0.132-1.295,0.348-1.852,0.338
				c-0.557-0.01-1.686-0.125-1.955-0.056c-0.395,0.101-1.895,0.804-1.895,0.804L224.489,98.86z"/>
			
				<ellipse transform="matrix(0.9999 -0.016 0.016 0.9999 -5.4525 2.8444)" style="fill:#1B65A8;" cx="174.68" cy="341.491" rx="27.67" ry="12.872"/>
			<path style="fill:#60B7E2;" d="M214.223,91.435c1.754,0.243,3.223,5.224,4.308,9.88c0,0,4.375-3.007,7.961-3.554l0.579,2.492
				c0,0-2.006,2.884-11.344,6.561c0,0-3.347-5.804-3.488-8.115C212.118,96.705,214.223,91.435,214.223,91.435z"/>
			<path style="fill:#88C9FF;" d="M212.098,114.669c0,0,4.609,8.193,5.065,15.944l-9.566-5.518l-1.801-6.645l1.801-2.095
				L212.098,114.669z"/>
			<g>
				<path style="fill:#54C0EF;" d="M340.345,201.867L181.561,110.09l-0.004,0.023c-1.606-0.998-4.072-0.339-4.511,1.941
					l-26.765,149.249c-0.562,2.922,1.007,5.4,3.275,6.55l-0.021,0.051l159.602,92.141l29.161-109.505L340.345,201.867z"/>
				<polygon style="fill:#AFDBEF;" points="303.74,343.628 306.732,343.884 332.951,197.593 330.222,196.016 303.417,342.589 				
					"/>
				<polygon style="fill:#DEF9FF;" points="303.74,343.628 330.222,196.016 188.122,113.867 184.705,115.721 158.908,259.438 				
					"/>
				<polygon style="fill:#508ED1;" points="329.927,197.626 323.656,232.617 178.849,147.405 184.705,115.721 192.485,116.354 				
					"/>
				<polygon style="fill:#5DA6E8;" points="329.597,199.418 184.705,115.721 188.122,113.867 332.951,197.593 				"/>
				<path style="fill:#3FA1D8;" d="M336.571,204.158l-26.765,149.249c-0.987,5.126,4.509,9.038,9.03,6.428l43.086-24.876
					c5.355-3.092,8.02-9.354,6.535-15.357l-26.085-115.597C341.607,200.914,337.173,201.03,336.571,204.158z"/>
				<path style="fill:#2D8AC4;" d="M339.111,209.944l-24.653,141.442c-0.5,2.869,2.584,5.011,5.098,3.541l42.468-24.841
					c2.396-1.402,3.621-4.184,3.037-6.898l-24.383-113.274C340.493,209.055,339.262,209.08,339.111,209.944z"/>
				<path style="fill:#2574AF;" d="M364.898,326.235l-41.845-24.159l-8.595,49.309c-0.5,2.869,2.584,5.011,5.098,3.54l42.468-24.841
					C363.501,329.221,364.46,327.809,364.898,326.235z"/>
				<g>
					<polygon style="fill:none;stroke:#7DBBEA;stroke-width:0.5593;stroke-miterlimit:10;" points="288.923,248.496 
						306.781,258.963 310.966,235.19 293.108,224.723 					"/>
					<polygon style="fill:none;stroke:#7DBBEA;stroke-width:0.5593;stroke-miterlimit:10;" points="271.066,238.03 288.923,248.496 
						293.108,224.723 275.25,214.257 					"/>
					<polygon style="fill:none;stroke:#7DBBEA;stroke-width:0.5593;stroke-miterlimit:10;" points="253.208,227.564 271.066,238.03 
						275.25,214.257 257.393,203.791 					"/>
					<polygon style="fill:none;stroke:#7DBBEA;stroke-width:0.5593;stroke-miterlimit:10;" points="235.351,217.097 
						253.208,227.564 257.393,203.791 239.536,193.324 					"/>
					<polygon style="fill:none;stroke:#7DBBEA;stroke-width:0.5593;stroke-miterlimit:10;" points="217.493,206.631 
						235.351,217.097 239.536,193.324 221.678,182.858 					"/>
					<polygon style="fill:none;stroke:#7DBBEA;stroke-width:0.5593;stroke-miterlimit:10;" points="199.636,196.164 
						217.493,206.631 221.678,182.858 203.82,172.391 					"/>
					<polygon style="fill:none;stroke:#7DBBEA;stroke-width:0.5593;stroke-miterlimit:10;" points="181.778,185.698 
						199.636,196.164 203.82,172.391 185.963,161.925 					"/>
					<polygon style="fill:none;stroke:#7DBBEA;stroke-width:0.5593;stroke-miterlimit:10;" points="284.738,272.269 
						302.596,282.736 306.781,258.963 288.923,248.496 					"/>
					<polygon style="fill:none;stroke:#7DBBEA;stroke-width:0.5593;stroke-miterlimit:10;" points="266.881,261.803 
						284.738,272.269 288.923,248.496 271.066,238.03 					"/>
					<polygon style="fill:none;stroke:#7DBBEA;stroke-width:0.5593;stroke-miterlimit:10;" points="249.023,251.336 
						266.881,261.803 271.066,238.03 253.208,227.564 					"/>
					<polygon style="fill:none;stroke:#7DBBEA;stroke-width:0.5593;stroke-miterlimit:10;" points="231.166,240.87 249.023,251.336 
						253.208,227.564 235.351,217.097 					"/>
					<polygon style="fill:none;stroke:#7DBBEA;stroke-width:0.5593;stroke-miterlimit:10;" points="213.309,230.404 231.166,240.87 
						235.351,217.097 217.493,206.631 					"/>
					<polygon style="fill:none;stroke:#7DBBEA;stroke-width:0.5593;stroke-miterlimit:10;" points="195.451,219.937 
						213.309,230.404 217.493,206.631 199.636,196.164 					"/>
					<polygon style="fill:none;stroke:#7DBBEA;stroke-width:0.5593;stroke-miterlimit:10;" points="177.594,209.471 
						195.451,219.937 199.636,196.164 181.778,185.698 					"/>
					<polygon style="fill:none;stroke:#7DBBEA;stroke-width:0.5593;stroke-miterlimit:10;" points="280.554,296.042 
						298.411,306.508 302.596,282.736 284.738,272.269 					"/>
					<polygon style="fill:none;stroke:#7DBBEA;stroke-width:0.5593;stroke-miterlimit:10;" points="262.696,285.576 
						280.554,296.042 284.738,272.269 266.881,261.803 					"/>
					<polygon style="fill:none;stroke:#7DBBEA;stroke-width:0.5593;stroke-miterlimit:10;" points="244.839,275.109 
						262.696,285.576 266.881,261.803 249.023,251.336 					"/>
					<polygon style="fill:none;stroke:#7DBBEA;stroke-width:0.5593;stroke-miterlimit:10;" points="226.981,264.643 
						244.839,275.109 249.023,251.336 231.166,240.87 					"/>
					<polygon style="fill:none;stroke:#7DBBEA;stroke-width:0.5593;stroke-miterlimit:10;" points="209.124,254.176 
						226.981,264.643 231.166,240.87 213.309,230.404 					"/>
					<polygon style="fill:none;stroke:#7DBBEA;stroke-width:0.5593;stroke-miterlimit:10;" points="191.266,243.71 209.124,254.176 
						213.309,230.404 195.451,219.937 					"/>
					<polygon style="fill:none;stroke:#7DBBEA;stroke-width:0.5593;stroke-miterlimit:10;" points="173.409,233.244 191.266,243.71 
						195.451,219.937 177.594,209.471 					"/>
					<polygon style="fill:none;stroke:#7DBBEA;stroke-width:0.5593;stroke-miterlimit:10;" points="276.369,319.815 
						294.227,330.281 298.411,306.508 280.554,296.042 					"/>
					<polygon style="fill:none;stroke:#7DBBEA;stroke-width:0.5593;stroke-miterlimit:10;" points="258.512,309.349 
						276.369,319.815 280.554,296.042 262.696,285.576 					"/>
					<polygon style="fill:none;stroke:#7DBBEA;stroke-width:0.5593;stroke-miterlimit:10;" points="240.654,298.882 
						258.512,309.349 262.696,285.576 244.839,275.109 					"/>
					<polygon style="fill:none;stroke:#7DBBEA;stroke-width:0.5593;stroke-miterlimit:10;" points="222.797,288.416 
						240.654,298.882 244.839,275.109 226.981,264.643 					"/>
					<polygon style="fill:none;stroke:#7DBBEA;stroke-width:0.5593;stroke-miterlimit:10;" points="204.939,277.949 
						222.797,288.416 226.981,264.643 209.124,254.176 					"/>
					<polygon style="fill:none;stroke:#7DBBEA;stroke-width:0.5593;stroke-miterlimit:10;" points="187.082,267.483 
						204.939,277.949 209.124,254.176 191.266,243.71 					"/>
					<polygon style="fill:none;stroke:#7DBBEA;stroke-width:0.5593;stroke-miterlimit:10;" points="169.224,257.017 
						187.082,267.483 191.266,243.71 173.409,233.244 					"/>
				</g>
				<path style="fill:#2974B7;" d="M209.352,234.541c-0.013-0.988-0.668-1.841-1.446-2.433c-0.785-0.607-1.719-1.021-2.678-1.303
					c-1.918-0.548-4.02-0.625-5.873,0.005c-0.918,0.316-1.763,0.827-2.371,1.54c-0.602,0.695-1.03,1.645-1.358,2.54
					c-0.624,1.845-0.649,3.89,0.013,5.671c0.328,0.893,0.872,1.676,1.509,2.348c0.657,0.664,1.471,1.14,2.329,1.508
					c1.754,0.664,3.798,0.791,5.419,0.143c0.792-0.366,1.516-0.864,2.036-1.558c0.513-0.692,0.867-1.498,1.029-2.339
					c0.32-1.701-0.346-3.437-1.587-4.058c-0.654-0.327-0.918-1.122-0.591-1.775c0.327-0.653,1.122-0.918,1.775-0.591
					c0.04,0.02,0.079,0.042,0.117,0.066l0.036,0.023c1.163,0.739,1.972,1.925,2.318,3.144c0.349,1.224,0.359,2.481,0.073,3.65
					c-0.296,1.166-0.855,2.25-1.631,3.161c-0.784,0.915-1.836,1.562-2.936,1.975c-0.568,0.157-1.13,0.338-1.709,0.353
					c-0.287,0.017-0.576,0.072-0.858,0.053l-0.846-0.061c-1.119-0.095-2.183-0.389-3.221-0.813
					c-1.013-0.479-1.972-1.103-2.735-1.941c-0.743-0.844-1.344-1.815-1.687-2.874c-0.701-2.113-0.574-4.404,0.186-6.428
					c0.417-1.005,0.866-1.967,1.643-2.808c0.765-0.826,1.772-1.37,2.805-1.68c2.086-0.612,4.283-0.426,6.28,0.225
					c0.997,0.338,1.962,0.808,2.781,1.494c0.806,0.663,1.51,1.642,1.482,2.763c-0.001,0.084-0.07,0.151-0.154,0.15
					C209.42,234.69,209.354,234.622,209.352,234.541z"/>
				<path style="fill:#2974B7;" d="M235.212,197.771c-0.012-0.905-0.611-1.686-1.324-2.228c-0.719-0.556-1.574-0.935-2.452-1.193
					c-1.756-0.502-3.682-0.572-5.379,0.004c-0.841,0.29-1.615,0.757-2.172,1.41c-0.151,0.154-0.259,0.339-0.385,0.514l-0.33,0.584
					c-0.121,0.189-0.195,0.401-0.285,0.605c-0.081,0.208-0.191,0.405-0.243,0.623c-0.301,0.843-0.415,1.737-0.44,2.618
					c-0.008,0.887,0.165,1.758,0.452,2.576c0.3,0.818,0.799,1.535,1.382,2.15c0.601,0.608,1.348,1.044,2.133,1.382
					c1.606,0.608,3.479,0.724,4.963,0.131c0.725-0.335,1.388-0.792,1.865-1.426c0.47-0.634,0.794-1.372,0.942-2.143
					c0.293-1.558-0.317-3.148-1.453-3.716c-0.598-0.299-0.841-1.027-0.542-1.625c0.299-0.598,1.027-0.841,1.626-0.542
					c0.037,0.018,0.073,0.039,0.107,0.06l0.033,0.021c1.065,0.677,1.806,1.763,2.123,2.879c0.319,1.121,0.329,2.272,0.067,3.342
					c-0.271,1.068-0.783,2.06-1.494,2.895c-0.718,0.837-1.681,1.43-2.688,1.808c-0.52,0.143-1.035,0.31-1.565,0.323
					c-0.262,0.016-0.527,0.065-0.786,0.049l-0.775-0.056c-0.522-0.011-1.004-0.167-1.503-0.256
					c-0.492-0.117-0.973-0.309-1.447-0.489c-0.927-0.439-1.806-1.01-2.505-1.778c-0.68-0.773-1.231-1.663-1.545-2.632
					c-0.642-1.935-0.526-4.033,0.171-5.886c0.068-0.239,0.195-0.456,0.293-0.682c0.107-0.223,0.2-0.453,0.339-0.659l0.388-0.633
					c0.154-0.201,0.3-0.419,0.485-0.597c0.701-0.757,1.623-1.255,2.569-1.539c1.911-0.56,3.923-0.39,5.751,0.206
					c0.913,0.309,1.797,0.74,2.547,1.368c0.739,0.608,1.383,1.504,1.357,2.531c-0.001,0.077-0.064,0.138-0.141,0.137
					C235.274,197.907,235.214,197.845,235.212,197.771z"/>
				<path style="fill:#2974B7;" d="M276.255,299.366c-0.012-0.905-0.611-1.686-1.324-2.228c-0.719-0.556-1.574-0.935-2.452-1.194
					c-1.756-0.502-3.682-0.572-5.379,0.004c-0.841,0.29-1.615,0.757-2.172,1.41c-0.151,0.154-0.259,0.339-0.385,0.514l-0.33,0.584
					c-0.121,0.189-0.195,0.401-0.285,0.606c-0.081,0.208-0.191,0.405-0.243,0.623c-0.301,0.843-0.415,1.737-0.44,2.618
					c-0.008,0.887,0.165,1.758,0.452,2.576c0.3,0.818,0.799,1.535,1.382,2.15c0.601,0.608,1.348,1.044,2.133,1.381
					c1.606,0.608,3.479,0.724,4.962,0.131c0.725-0.335,1.388-0.792,1.865-1.427c0.47-0.634,0.794-1.372,0.942-2.142
					c0.293-1.558-0.317-3.148-1.453-3.716c-0.598-0.299-0.841-1.027-0.542-1.625c0.299-0.598,1.027-0.841,1.626-0.542
					c0.037,0.018,0.072,0.039,0.107,0.06l0.033,0.021c1.065,0.677,1.806,1.763,2.123,2.879c0.319,1.121,0.329,2.272,0.067,3.342
					c-0.271,1.068-0.783,2.06-1.494,2.895c-0.718,0.837-1.681,1.43-2.688,1.808c-0.52,0.144-1.035,0.31-1.565,0.323
					c-0.262,0.016-0.527,0.065-0.786,0.049l-0.774-0.056c-0.522-0.011-1.004-0.167-1.503-0.256
					c-0.492-0.117-0.973-0.309-1.447-0.489c-0.927-0.439-1.806-1.01-2.505-1.778c-0.68-0.773-1.231-1.662-1.545-2.632
					c-0.642-1.935-0.526-4.033,0.171-5.887c0.068-0.239,0.195-0.455,0.293-0.682c0.107-0.223,0.2-0.453,0.339-0.659l0.388-0.633
					c0.154-0.201,0.299-0.419,0.485-0.597c0.701-0.757,1.623-1.255,2.569-1.539c1.911-0.56,3.923-0.39,5.751,0.206
					c0.913,0.309,1.797,0.74,2.547,1.368c0.739,0.608,1.383,1.504,1.357,2.531c-0.001,0.077-0.064,0.138-0.141,0.137
					C276.318,299.502,276.257,299.44,276.255,299.366z"/>
				<path style="fill:#2974B7;" d="M186.831,247.152c-0.012-0.905-0.611-1.686-1.324-2.228c-0.719-0.556-1.574-0.935-2.452-1.193
					c-1.756-0.502-3.682-0.572-5.379,0.004c-0.841,0.289-1.615,0.757-2.172,1.41c-0.151,0.154-0.259,0.339-0.385,0.514l-0.33,0.584
					c-0.12,0.189-0.195,0.401-0.285,0.606c-0.081,0.208-0.191,0.404-0.243,0.623c-0.301,0.843-0.415,1.737-0.44,2.618
					c-0.008,0.887,0.165,1.758,0.452,2.576c0.3,0.818,0.799,1.535,1.382,2.15c0.601,0.608,1.348,1.044,2.133,1.381
					c1.606,0.608,3.479,0.724,4.962,0.131c0.725-0.335,1.388-0.792,1.865-1.427c0.47-0.634,0.794-1.372,0.942-2.142
					c0.293-1.558-0.317-3.148-1.453-3.716c-0.598-0.299-0.841-1.027-0.542-1.626c0.299-0.598,1.027-0.841,1.626-0.541
					c0.037,0.018,0.072,0.039,0.107,0.06l0.033,0.021c1.065,0.677,1.806,1.763,2.123,2.879c0.319,1.121,0.329,2.272,0.067,3.342
					c-0.271,1.068-0.783,2.06-1.494,2.895c-0.718,0.837-1.681,1.43-2.688,1.808c-0.52,0.144-1.035,0.31-1.565,0.323
					c-0.263,0.016-0.527,0.065-0.786,0.049l-0.774-0.056c-0.522-0.011-1.004-0.167-1.503-0.256
					c-0.492-0.117-0.973-0.309-1.447-0.489c-0.927-0.439-1.806-1.01-2.505-1.778c-0.68-0.773-1.231-1.662-1.545-2.632
					c-0.642-1.935-0.526-4.033,0.171-5.886c0.068-0.239,0.195-0.455,0.293-0.682c0.107-0.223,0.2-0.453,0.339-0.66l0.388-0.633
					c0.154-0.201,0.299-0.419,0.485-0.597c0.701-0.757,1.623-1.255,2.569-1.539c1.911-0.56,3.923-0.39,5.751,0.206
					c0.913,0.309,1.797,0.74,2.547,1.368c0.739,0.608,1.383,1.504,1.357,2.531c-0.001,0.077-0.064,0.138-0.141,0.137
					C186.893,247.288,186.833,247.227,186.831,247.152z"/>
				<g>
					<g>
						<path style="fill:#2974B7;" d="M194.33,162.62c0.098,0.415,0.331,0.717,0.578,0.863c0.273,0.161,0.65,0.108,0.724-0.385
							c0.156-1.029-1.454-1.284-1.19-3.027c0.079-0.524,0.493-1.071,1.231-0.637c0.334,0.197,0.639,0.487,0.807,1.033l-0.406,0.249
							c-0.069-0.295-0.249-0.573-0.487-0.714c-0.46-0.271-0.66,0.051-0.702,0.329c-0.171,1.13,1.445,1.347,1.201,2.957
							c-0.131,0.865-0.687,1.102-1.277,0.754c-0.395-0.233-0.742-0.651-0.887-1.197L194.33,162.62z"/>
						<path style="fill:#2974B7;" d="M197.548,160.664l-0.415,2.741c-0.084,0.556-0.003,1.388,0.579,1.73
							c0.581,0.343,0.881-0.265,0.965-0.82l0.415-2.741l0.416,0.245l-0.43,2.835c-0.157,1.036-0.781,1.445-1.454,1.049
							c-0.672-0.396-1.08-1.414-0.923-2.45l0.43-2.835L197.548,160.664z"/>
						<path style="fill:#2974B7;" d="M200.243,162.252l0.546,0.322l1.135,4.673l0.008,0.005l0.557-3.675l0.416,0.245l-0.678,4.471
							l-0.529-0.312l-1.152-4.683l-0.008-0.005l-0.557,3.675l-0.416-0.245L200.243,162.252z"/>
					</g>
					<g>
						<path style="fill:#2974B7;" d="M210.12,168.293l0.62,0.365l0.463,3.96l0.017,0.01l1.48-2.815l0.62,0.366l-0.678,4.471
							l-0.416-0.245l0.557-3.675l-0.008-0.005l-1.594,3.064l-0.278-0.164l-0.48-4.286l-0.008-0.005l-0.557,3.675l-0.416-0.245
							L210.12,168.293z"/>
						<path style="fill:#2974B7;" d="M213.553,172.751c0.201-1.326,1.02-1.958,1.956-1.406c0.937,0.552,1.446,1.966,1.245,3.293
							c-0.201,1.326-1.02,1.958-1.957,1.406C213.86,175.492,213.352,174.078,213.553,172.751z M216.311,174.378
							c0.148-0.979-0.185-2.049-0.888-2.464c-0.703-0.414-1.279,0.12-1.428,1.098c-0.148,0.979,0.185,2.049,0.888,2.463
							C215.586,175.89,216.163,175.356,216.311,174.378z"/>
						<path style="fill:#2974B7;" d="M217.693,172.757l0.546,0.322l1.135,4.673l0.008,0.005l0.557-3.675l0.416,0.245l-0.677,4.471
							l-0.529-0.312l-1.152-4.683l-0.008-0.005l-0.557,3.675l-0.416-0.245L217.693,172.757z"/>
					</g>
					<g>
						<path style="fill:#2974B7;" d="M230.44,179.731l-0.989-0.583l0.086-0.568l2.394,1.411l-0.086,0.568l-0.989-0.583l-0.591,3.903
							l-0.416-0.245L230.44,179.731z"/>
						<path style="fill:#2974B7;" d="M232.736,180.465l-0.415,2.741c-0.084,0.556-0.003,1.388,0.579,1.731
							c0.581,0.343,0.881-0.265,0.965-0.82l0.415-2.741l0.417,0.245l-0.43,2.835c-0.157,1.036-0.781,1.445-1.454,1.049
							c-0.672-0.396-1.08-1.414-0.923-2.45l0.43-2.835L232.736,180.465z"/>
						<path style="fill:#2974B7;" d="M235.431,182.054l1.982,1.168l-0.086,0.568l-1.565-0.923l-0.202,1.333l1.457,0.859
							l-0.086,0.568l-1.457-0.859l-0.217,1.433l1.644,0.969l-0.086,0.568l-2.06-1.214L235.431,182.054z"/>
					</g>
					<g>
						<path style="fill:#2974B7;" d="M246.232,188.941l0.434,0.256l0.135,3.973l0.009,0.005l1.266-3.147l0.477,0.281l0.183,4.001
							l0.008,0.005l1.218-3.175l0.434,0.256l-1.571,3.944l-0.438-0.258l-0.193-4.09l-0.009-0.005l-1.295,3.213l-0.438-0.258
							L246.232,188.941z"/>
						<path style="fill:#2974B7;" d="M250.798,191.632l1.982,1.168l-0.086,0.568l-1.566-0.923l-0.202,1.332l1.457,0.859
							l-0.086,0.568l-1.457-0.859l-0.217,1.433l1.644,0.969l-0.086,0.568l-2.06-1.214L250.798,191.632z"/>
						<path style="fill:#2974B7;" d="M253.38,193.154l1.072,0.632c1.297,0.764,1.4,2.359,1.275,3.186
							c-0.173,1.143-0.924,1.89-2.022,1.244l-1.002-0.591L253.38,193.154z M253.205,197.302l0.525,0.309
							c0.703,0.414,1.387,0.205,1.554-0.9c0.086-0.568,0.049-1.788-0.949-2.376l-0.625-0.368L253.205,197.302z"/>
					</g>
					<g>
						<path style="fill:#2974B7;" d="M265.573,201.185l-0.989-0.583l0.086-0.568l2.394,1.411l-0.086,0.568l-0.989-0.583
							l-0.591,3.903l-0.416-0.245L265.573,201.185z"/>
						<path style="fill:#2974B7;" d="M267.509,201.707l0.416,0.245l-0.281,1.856l1.592,0.938l0.281-1.857l0.416,0.245l-0.678,4.471
							l-0.416-0.246l0.31-2.046l-1.592-0.938l-0.31,2.046l-0.417-0.245L267.509,201.707z"/>
						<path style="fill:#2974B7;" d="M271.085,203.815l-0.415,2.741c-0.084,0.556-0.003,1.388,0.579,1.731
							c0.581,0.343,0.881-0.265,0.965-0.82l0.415-2.741l0.416,0.245l-0.43,2.835c-0.157,1.036-0.781,1.445-1.454,1.049
							c-0.672-0.396-1.08-1.414-0.923-2.45l0.43-2.835L271.085,203.815z"/>
					</g>
					<g>
						<path style="fill:#2974B7;" d="M284.665,212.224l1.93,1.138l-0.086,0.568l-1.514-0.892l-0.212,1.402l1.409,0.831l-0.086,0.568
							l-1.41-0.831l-0.293,1.932l-0.416-0.245L284.665,212.224z"/>
						<path style="fill:#2974B7;" d="M287.156,213.693l1.08,0.637c0.785,0.463,0.88,1.269,0.795,1.831
							c-0.086,0.568-0.458,0.934-0.933,0.736l0.563,2.554l-0.521-0.307l-0.482-2.43l-0.464-0.273l-0.299,1.97l-0.416-0.245
							L287.156,213.693z M287.274,215.908l0.546,0.322c0.329,0.194,0.677,0.275,0.768-0.331c0.092-0.606-0.221-0.914-0.55-1.109
							l-0.546-0.322L287.274,215.908z"/>
						<path style="fill:#2974B7;" d="M289.807,215.255l0.417,0.246l-0.678,4.471l-0.416-0.245L289.807,215.255z"/>
					</g>
					<g>
						<path style="fill:#2974B7;" d="M300.191,224.353c0.097,0.415,0.331,0.717,0.578,0.863c0.273,0.161,0.65,0.108,0.724-0.385
							c0.156-1.029-1.454-1.284-1.19-3.027c0.079-0.524,0.493-1.071,1.231-0.637c0.334,0.197,0.639,0.487,0.807,1.033l-0.406,0.249
							c-0.069-0.295-0.249-0.573-0.487-0.714c-0.46-0.271-0.66,0.051-0.702,0.329c-0.171,1.13,1.445,1.347,1.201,2.957
							c-0.131,0.865-0.687,1.102-1.277,0.754c-0.395-0.233-0.742-0.651-0.887-1.197L300.191,224.353z"/>
						<path style="fill:#2974B7;" d="M304.011,222.753l0.377,0.222l0.637,5.246l-0.486-0.286l-0.141-1.287l-1.462-0.862
							l-0.471,0.926l-0.486-0.286L304.011,222.753z M304.327,226.028l-0.261-2.39l-0.008-0.005l-0.892,1.71L304.327,226.028z"/>
						<path style="fill:#2974B7;" d="M306.26,224.697l-0.989-0.583l0.086-0.568l2.394,1.411l-0.086,0.568l-0.989-0.583l-0.591,3.903
							l-0.416-0.245L306.26,224.697z"/>
					</g>
				</g>
			</g>
			<g>
				<path style="fill:#2069A5;" d="M192.558,126.886c-0.162,1.502,0.485,2.804,1.445,2.908c0.96,0.103,1.87-1.031,2.032-2.533
					c0.162-1.502-0.485-2.804-1.445-2.908C193.63,124.249,192.721,125.383,192.558,126.886z"/>
				<g>
					<path style="fill:#2A81D8;" d="M199.991,122.693 M196.062,126.852c0,0,0.024-0.87-0.317-1.544
						c-0.36,0.261-0.715,0.477-1.091,0.667c-1.451,0.731-2.807,0.803-3.819,0.203c-1.011-0.6-1.597-1.825-1.651-3.449
						c-0.058-1.745,0.503-3.702,1.577-5.514c1.075-1.811,2.525-3.241,4.084-4.026c0.801-0.403,1.572-0.606,2.273-0.606
						c0.57,0,1.092,0.134,1.546,0.403c1.011,0.6,1.598,1.825,1.651,3.449c0.043,1.29-0.253,2.697-0.844,4.075l1.274,0.726
						c0.719-1.622,1.079-3.301,1.028-4.849c-0.071-2.139-0.91-3.793-2.365-4.655c-1.453-0.862-3.308-0.808-5.219,0.155
						c-1.804,0.909-3.467,2.537-4.682,4.585c-1.215,2.048-1.848,4.287-1.781,6.306c0.071,2.139,0.911,3.792,2.365,4.655
						c0.686,0.407,1.46,0.61,2.287,0.61c0.928,0,1.922-0.255,2.933-0.764C195.568,127.147,195.81,127.011,196.062,126.852"/>
				</g>
			</g>
			<g>
				<path style="fill:#2069A5;" d="M217.544,141.247c-0.162,1.502,0.485,2.804,1.445,2.908c0.96,0.103,1.87-1.031,2.032-2.533
					c0.162-1.502-0.485-2.804-1.445-2.907C218.615,138.611,217.706,139.745,217.544,141.247z"/>
				<g>
					<path style="fill:#2A81D8;" d="M224.976,137.054 M221.047,141.214c0,0,0.024-0.87-0.317-1.544
						c-0.36,0.261-0.715,0.477-1.091,0.667c-1.451,0.731-2.807,0.803-3.819,0.203c-1.011-0.6-1.597-1.825-1.651-3.449
						c-0.058-1.744,0.503-3.702,1.577-5.513c1.075-1.811,2.525-3.241,4.084-4.026c0.801-0.403,1.572-0.606,2.273-0.606
						c0.57,0,1.092,0.134,1.546,0.403c1.011,0.6,1.598,1.825,1.652,3.449c0.042,1.29-0.253,2.697-0.844,4.075l1.274,0.726
						c0.719-1.622,1.079-3.3,1.028-4.849c-0.071-2.139-0.91-3.792-2.365-4.655c-1.453-0.862-3.308-0.808-5.219,0.155
						c-1.804,0.909-3.467,2.537-4.682,4.585c-1.215,2.048-1.848,4.287-1.781,6.306c0.071,2.139,0.911,3.792,2.365,4.655
						c0.686,0.407,1.46,0.61,2.287,0.61c0.928,0,1.922-0.255,2.933-0.764C220.553,141.509,220.795,141.372,221.047,141.214"/>
				</g>
			</g>
			<g>
				<path style="fill:#F3FAFF;" d="M244.247,164.492c-0.304-0.841-1.04-1.595-1.63-1.952c-0.683-0.413-1.681-0.606-1.82,0.398
					c-0.339,2.445,4.937,3.933,4.286,8.633c-0.415,2.994-2.582,3.223-4.847,1.852c-1.412-0.854-2.582-2.117-3.459-3.921l2.042-1.27
					c0.386,1.096,1.128,2.058,1.934,2.547c0.791,0.479,1.739,0.559,1.87-0.388c0.341-2.464-4.993-4.254-4.374-8.727
					c0.396-2.862,2.636-3.129,4.792-1.824c1.241,0.751,2.381,1.872,3.173,3.44L244.247,164.492z"/>
				<path style="fill:#F3FAFF;" d="M254.876,171.151c-0.384-0.992-1.027-1.813-1.926-2.357c-1.831-1.108-3.432-0.105-3.779,2.396
					c-0.346,2.502,0.751,5.138,2.505,6.199c0.977,0.592,1.842,0.54,2.464-0.07l1.763,3.059c-1.136,1.038-2.79,0.838-4.294-0.073
					c-3.429-2.075-5.546-6.335-4.951-10.637c0.596-4.302,3.474-5.538,6.903-3.463c1.225,0.742,2.706,2.192,3.435,4.215
					L254.876,171.151z"/>
				<path style="fill:#F3FAFF;" d="M258.804,169.749l2.42,1.465l-0.693,5.003l4.701,2.845l0.693-5.003l2.42,1.465l-1.858,13.417
					l-2.42-1.465l0.803-5.799l-4.701-2.845l-0.803,5.799l-2.42-1.465L258.804,169.749z"/>
				<path style="fill:#F3FAFF;" d="M270.672,176.932l7.462,4.516l-0.378,2.729l-5.042-3.051l-0.346,2.502l4.763,2.883l-0.378,2.729
					l-4.763-2.883l-0.378,2.729l5.321,3.221l-0.378,2.729l-7.741-4.685L270.672,176.932z"/>
				<path style="fill:#F3FAFF;" d="M280.354,182.792l3.63,2.197c3.537,2.141,6.246,5.773,5.566,10.681
					c-0.601,4.34-3.825,4.915-7.098,2.934l-3.956-2.394L280.354,182.792z M281.294,194.945l1.257,0.76
					c2.249,1.361,4.085,1.343,4.507-1.708c0.365-2.634-1.187-4.908-3.235-6.147l-1.428-0.864L281.294,194.945z"/>
				<path style="fill:#F3FAFF;" d="M300.25,203.768c-0.438,3.165-2.346,4.557-5.387,2.717c-3.056-1.85-4.313-5.157-3.875-8.322
					l1.141-8.244l2.42,1.464l-1.126,8.13c-0.228,1.649,0.53,3.463,1.817,4.242c1.272,0.77,2.376,0.082,2.604-1.566l1.126-8.13
					l2.42,1.465L300.25,203.768z"/>
				<path style="fill:#F3FAFF;" d="M303.719,196.932l2.42,1.465l-1.48,10.688l4.484,2.714l-0.378,2.729l-6.904-4.178
					L303.719,196.932z"/>
				<path style="fill:#F3FAFF;" d="M312.05,201.975l7.462,4.516l-0.378,2.729l-5.042-3.051l-0.346,2.502l4.763,2.883l-0.378,2.729
					l-4.763-2.882l-0.378,2.729l5.321,3.22l-0.378,2.729l-7.741-4.685L312.05,201.975z"/>
			</g>
			<g>
				<g>
					<path style="fill:#52B1FF;" d="M196.99,244.133c-1.267-2.134-3.399-3.208-4.762-2.399l-44.649,25.747l4.632,7.701
						l44.603-25.718C198.177,248.654,198.256,246.268,196.99,244.133z"/>
					<path style="fill:#7D7D7D;" d="M147.448,272.782c1.266,2.134,3.399,3.208,4.762,2.399c1.364-0.809,1.443-3.195,0.176-5.33
						c-1.266-2.134-3.399-3.208-4.762-2.399C146.26,268.262,146.182,270.648,147.448,272.782z"/>
				</g>
				<g>
					<path style="fill:#163142;" d="M155.649,268.003c-1.267-2.134-3.399-3.208-4.762-2.399l-3.309,1.876l4.632,7.701l3.263-1.848
						C156.837,272.524,156.916,270.138,155.649,268.003z"/>
				</g>
				<path style="fill:#C0E6FF;" d="M152.849,269.594c-1.267-2.134-3.399-3.208-4.762-2.399l-3.235,1.835
					c-0.009,0.005-0.019,0.008-0.027,0.013c-0.005,0.003-0.01,0.008-0.015,0.011l-0.031,0.017l0.002,0.003
					c-1.319,0.835-1.384,3.189-0.132,5.299c1.266,2.134,3.399,3.208,4.762,2.399l3.263-1.848
					C154.037,274.114,154.116,271.728,152.849,269.594z"/>
				<path style="fill:#94D4FF;" d="M207.473,238.296c-0.018-0.041-0.039-0.081-0.069-0.113c-0.105-0.113-0.275-0.146-0.37-0.121
					l-13.876,3.402c1.268-0.021,2.841,1,3.831,2.669c0.193,0.326,0.345,0.656,0.475,0.987c0.564,1.425,0.56,2.839-0.014,3.722
					l10.038-10.314C207.521,238.486,207.512,238.388,207.473,238.296z"/>
			</g>
			<g>
				<path style="fill:#093759;" d="M166.991,345.728c0,0,2.646-1.127,3.875-1.55c1.326-0.456,2.266,0.547-0.201,2.12
					c-2.467,1.573-3.834,2.69-4.7,2.439c-0.866-0.251-0.866-1.157-0.889-1.844c-0.023-0.687,0.131-0.931,0.476-1.014
					C165.897,345.797,166.991,345.728,166.991,345.728z"/>
				<path style="fill:#093759;" d="M158.421,340.799c0,0,2.646-1.127,3.875-1.55c1.326-0.456,2.266,0.547-0.201,2.12
					c-2.467,1.573-3.834,2.69-4.701,2.439c-0.866-0.251-0.866-1.157-0.889-1.844s0.131-0.931,0.476-1.014
					C157.327,340.868,158.421,340.799,158.421,340.799z"/>
				<path style="fill:#FECFAE;" d="M157.896,342.335L157.896,342.335c-0.68,0-1.231-0.551-1.231-1.231v-3.787h2.462v3.787
					C159.127,341.784,158.576,342.335,157.896,342.335z"/>
				<path style="fill:#FECFAE;" d="M166.764,346.894L166.764,346.894c-0.68,0-1.231-0.551-1.231-1.231v-3.787h2.462v3.787
					C167.995,346.343,167.444,346.894,166.764,346.894z"/>
				<path style="fill:#FECFAE;" d="M169.109,253.302l-2.322-0.251c-0.493-0.053-0.731-0.63-0.42-1.016l0.036-0.045
					c0.862-1.069,2.114-1.75,3.479-1.895l0,0c0.562-0.053,2.892,0.258,3.579,0.697c0.583,0.372,1.704,3.512-0.106,3.594
					c-1.001,0.248-2.548-1.58-2.98-0.926c-0.13,0.197,0.288,0.826,0.044,1.587c-0.172,0.611-0.801-0.014-0.762-0.416
					C169.713,254.057,169.109,253.302,169.109,253.302z"/>
				<g>
					<path style="fill:#1C79B7;" d="M158.972,270.271c-2.903-0.507-4.596,1.605-3.251,5.72
						C157.067,280.107,158.972,270.271,158.972,270.271z"/>
					<path style="fill:#88C9FF;" d="M155.853,295.114l4.071,0.234l0.29,1.471l3.472,0.686c0,0,5.252-3.322,6.172-2.211
						c1.622,12.174,0.3,22.676,0.3,22.676l-1.951,26.523c-0.23,1.192-2.799,0.597-2.892,0.01c-0.771-5.924-2.68-21.404-0.863-26.203
						c-0.955-5.345-1.074-11.381-1.074-11.381s-0.487-0.539-0.975-0.572c1.249,10.698-2.984,32.921-2.984,32.921
						c-1.89,1.062-3.172,0.15-3.172,0.15c-0.066-8.157-0.593-19.545-0.034-23.889C156.691,310.746,152.225,299.556,155.853,295.114z
						"/>
					<path style="fill:#0F4B7C;" d="M165.104,271.873c-0.933,0.841-4.645,0.179-4.579-1.199c-0.85-0.332-1.456-0.624-2.333-0.397
						c-2.081,0.537-3.031,3.302-3.243,7.394c-0.247,4.777,1.424,5.802,1.274,10.628c-0.078,2.522-1.243,4.79-1.844,8.124
						c-0.22,1.221,0.814,3.031,1.761,3.833c7.156,6.054,14.996,4.569,14.966,3.177c-0.083-3.782-1.219-17.456-0.929-18.871
						c0.553-1.518,0.936-3.077,1.149-4.781c0.299-2.39-0.04-3.293-0.646-4.032C169.411,274.201,165.104,271.873,165.104,271.873z"/>
					<g>
						<path style="fill:#FECFAE;" d="M169.223,260.757c0.66,1.451,0.014,2.214,0.065,3.283c0,0.944,0.71,4.894-1.153,5.313
							c-1.317,0.297-2.194,0.144-2.194,0.144l-0.957,2.716c-0.527,1.033-4.891,0.582-4.541-1.592l0.212-1.907
							c-0.992-0.458-2.824-2.099-2.824-5.343s3.458-5.743,6.576-5.743C167.524,257.628,169.04,260.355,169.223,260.757z"/>
						<path style="fill:#276EAF;" d="M166.232,268.099c-0.103,0.256-0.27,0.523-0.475,0.75c-0.395,0.437,0.333,0.478-0.728,1.019
							c-0.824,0.42-2.131,0.285-2.842,0.273c-0.194-0.003-0.388-0.048-0.543-0.164c-0.201-0.151-0.662-0.241-1.066-1.039
							c-0.726-0.961-1.744-0.967-2.597-2.929c0,0-0.799-1.049-0.631-2.073c0.017-0.106,0.023-0.216,0.006-0.322
							c-0.889-5.365,3.212-5.572,5.262-6.085c1.039-0.26,1.63-1.092,1.737-1.748c0.076-0.46,0.457-0.816,0.923-0.799
							c0.449,0.016,1.06,0.136,1.852,0.486c1.922,0.553,4.849,3.485,3.976,5.63c-0.873,2.146-3.853,2.138-4.454,2.907
							C166.017,264.815,166.359,267.783,166.232,268.099z"/>
					</g>
					<path style="fill:#FECFAE;" d="M179.574,259.753l-1.743,15.819c0,0-1.366-0.199-4.001-0.207
						c-0.919,0.521-1.965,3.71,0.646,4.176c2.611,0.466,4.663,0.036,6.36-1.083c1.416-0.934,1.558-18.54,1.558-18.54
						c0.322-0.818,0.585-3.053-0.697-5.171c-0.657-0.539-2.619-1.196-3.703-0.576c-0.684,0.521,0.067,2.511,0.337,3.203
						c0.257,0.659-0.312,0.454-1.013,0.376c-0.701-0.077-0.926,0.538,0.64,1.122C178.532,259.087,178.774,259.835,179.574,259.753z"
						/>
					<path style="fill:#1C79B7;" d="M160.468,270.39l-0.163,0.198c-0.193,0.188-0.759,1.506,0.524,2.212
						c1.283,0.706,3.1,0.758,4.443-0.413c0.138-0.172-0.139-0.54-0.139-0.54c-0.357,0.238-1.859,0.983-3.598,0.273
						C161.104,271.939,160.34,271.174,160.468,270.39z"/>
				</g>
				<path style="fill:#1C79B7;" d="M168.36,274.369c1.055-0.269,5.223-0.149,8.409,0.361c0,0,0.977-10.107,2.421-14.269
					c0,0,2.73-0.552,3.488,0c0,0,1.238,14.864-2.314,18.728c0,0-3.145,1.529-10.674,0.722c-2.476-0.17-3.174-1.657-3.213-3.228
					C166.436,275.098,167.589,274.565,168.36,274.369z"/>
			</g>
			<g>
				<path style="fill:#57C2F7;" d="M241.057,276.635c6.329-0.804,15.271-7.652,16.647-16.27c1.376-8.618,6.277-40.414,6.277-40.414
					l45.694,26.525c0,0-4.901,31.796-6.277,40.414c-1.376,8.618-10.318,15.466-16.647,16.27L241.057,276.635z"/>
				<g>
					<g>
						<path style="fill:#134563;" d="M287.147,234.919c-0.015-0.025-0.039-0.037-0.055-0.028h0l0,0l0,0h0l-6.083,3.007l0.072,0.036
							l0.089,0.003c-0.01,0.105,0.019,0.232,0.09,0.352c0.079,0.133,0.19,0.225,0.297,0.259l-0.043,0.074l-0.028,0.065l5.659-3.705
							l0,0c0,0,0.001-0.001,0.001-0.001C287.16,234.972,287.161,234.944,287.147,234.919z"/>
						<path style="fill:#A8A8A8;" d="M281.496,238.144c-0.13-0.219-0.349-0.329-0.488-0.246c-0.14,0.083-0.148,0.328-0.018,0.547
							c0.13,0.219,0.349,0.329,0.488,0.246C281.618,238.607,281.626,238.363,281.496,238.144z"/>
					</g>
					<g>
						<path style="fill:#276EAF;" d="M283.975,236.59c-1.069-1.801-2.86-2.717-4.026-2.07l-0.001-0.001l-0.033,0.019
							c-0.002,0.001-0.004,0.002-0.006,0.003c-0.001,0.001-0.002,0.001-0.003,0.002l-0.465,0.208l0.596,0.302l0.744,0.027
							c-0.087,0.87,0.16,1.93,0.751,2.927c0.655,1.104,1.581,1.875,2.469,2.158l-0.361,0.617l-0.234,0.538l0.3-0.115l0,0
							c0.041-0.02,0.081-0.041,0.12-0.064C284.989,240.449,285.056,238.412,283.975,236.59z"/>
						<path style="fill:#135384;" d="M283.506,236.8c-1.081-1.822-2.901-2.739-4.066-2.048c-1.164,0.691-1.232,2.728-0.15,4.55
							c1.081,1.822,2.901,2.739,4.066,2.048C284.52,240.659,284.587,238.622,283.506,236.8z"/>
					</g>
					<g>
						<path style="fill:#276EAF;" d="M282.191,237.779c-0.536-0.904-1.435-1.363-2.02-1.038l0-0.001l-0.017,0.01
							c-0.001,0.001-0.002,0.001-0.003,0.002l-0.002,0.001l-4.618,3.04l0.237,0.12l0.296,0.011
							c-0.035,0.346,0.064,0.767,0.299,1.163c0.26,0.439,0.629,0.745,0.982,0.858l-0.143,0.245l-0.093,0.214l4.947-2.31v0
							c0.02-0.01,0.041-0.021,0.06-0.032C282.7,239.714,282.734,238.693,282.191,237.779z"/>
						<path style="fill:#A8A8A8;" d="M277.149,240.607c-0.43-0.724-1.153-1.089-1.616-0.814c-0.463,0.275-0.49,1.085-0.06,1.809
							c0.43,0.724,1.154,1.089,1.616,0.814C277.552,242.141,277.579,241.331,277.149,240.607z"/>
					</g>
					<g>
						<path style="fill:#40A6F2;" d="M278.265,239.9c-0.752-1.268-2.013-1.912-2.833-1.457l0-0.001l-0.023,0.013
							c-0.002,0.001-0.003,0.002-0.004,0.002c0,0-0.001,0.001-0.002,0.001l-0.779,0.446l0.419,0.212l0.524,0.019
							c-0.062,0.612,0.112,1.358,0.529,2.06c0.461,0.777,1.113,1.319,1.737,1.519l-0.254,0.434l-0.165,0.379l0.662-0.381l0,0
							c0.029-0.014,0.057-0.029,0.085-0.045C278.978,242.616,279.026,241.182,278.265,239.9z"/>
						<path style="fill:#276EAF;" d="M277.483,240.347c-0.761-1.282-2.042-1.928-2.862-1.442c-0.819,0.486-0.867,1.92-0.106,3.202
							c0.761,1.282,2.042,1.928,2.861,1.441C278.197,243.063,278.244,241.629,277.483,240.347z"/>
					</g>
				</g>
				<path style="fill:#FECFAE;" d="M272.227,245.165l1.732-2.021c0,0,0.418-3.38,1.033-3.624c0.616-0.244,1.778,0.759,1.721,1.169
					c-0.057,0.41-0.57,1.47-0.467,1.915c0,0,0.422-0.445,0.695-0.615c0.273-0.171,0.581,0.1,0.376,0.415s-0.683,0.905-0.866,1.067
					s-0.638,0.137-1.049,0.445c-0.41,0.308-2.188,3.453-2.188,3.453L272.227,245.165z"/>
				<path style="fill:#4F8BD3;" d="M261.783,254.218l5.582-3.73c0,0,4.063-5.048,4.969-5.635c1.299,0,1.679,1.615,1.398,2.515
					c-0.315,0.614-4.769,6.04-4.769,6.04l-4.29,3.572c0,0-5.718,0.46-5.541,0.415C259.308,257.35,261.783,254.218,261.783,254.218z"
					/>
				<g>
					<path style="fill:#286CAF;" d="M284.475,289.961c0,0,2.148-4.332,2.542-4.941c0.365-0.564,1.197-0.267,1.107,0.417
						c-0.095,0.723-1.521,6.393-1.749,7.081c-0.297,0.897-2.048,0.213-2.219-0.167c-0.249-0.552,0.107-1.261,0.107-1.261
						L284.475,289.961z"/>
					<path style="fill:#FECFAE;" d="M283.01,289.014c0.086,0.033,1.173,0.621,1.94,1.037c0.45,0.244,0.637,0.654,0.466,1.014l0,0
						c-0.238,0.501-1.065,0.714-1.76,0.455l-1.798-0.671L283.01,289.014z"/>
				</g>
				<g>
					<path style="fill:#286CAF;" d="M281.352,272.862c0,0,2.092-4.22,2.476-4.813c0.355-0.549,1.166-0.26,1.078,0.406
						c-0.093,0.704-1.481,6.227-1.703,6.898c-0.289,0.873-1.995,0.207-2.161-0.163c-0.242-0.537,0.104-1.228,0.104-1.228
						L281.352,272.862z"/>
					<path style="fill:#FECFAE;" d="M279.925,271.94c0.084,0.032,1.143,0.605,1.889,1.01c0.439,0.238,0.621,0.637,0.454,0.988l0,0
						c-0.231,0.488-1.037,0.696-1.715,0.443l-1.751-0.654L279.925,271.94z"/>
				</g>
				<path style="fill:#99DDFF;" d="M259.036,272.838c2.503-2.596,9.832-6.277,12.765-6.717c4.537,2.173,9.077,6.073,9.077,6.073
					l-0.211,2.363c0,0-6.071-1.613-8.455-2.525c-0.428,0.19-3.51,6.784-8.495,9.923s-6.2-5.957-6.2-5.957
					S258.428,273.469,259.036,272.838z"/>
				<path style="fill:#99DDFF;" d="M251.56,278.491c-3.465,5.738,3.02,12.085,11.527,10.942c7.159-0.962,10.63-2.629,10.63-2.629
					l9.638,5.084l0.662-2.49c0,0-9.228-9.266-11.668-9.295c-2.44-0.029-11.818,0.729-11.818,0.729L251.56,278.491z"/>
				<g>
					<g>
						<g>
							<path style="fill:#23456D;" d="M265.472,274.277c-0.16,0-0.307-0.106-0.352-0.268c-0.054-0.193,0.06-0.395,0.254-0.449
								c7.564-2.109,9.935-13.698,10.603-18.583c1.044-7.637,11.522-69.459,11.628-70.083c0.034-0.198,0.211-0.339,0.42-0.298
								c0.199,0.034,0.333,0.222,0.299,0.42c-0.105,0.624-10.581,62.435-11.624,70.061c-0.688,5.027-3.147,16.96-11.13,19.187
								C265.537,274.272,265.504,274.277,265.472,274.277z"/>
						</g>
					</g>
					<path style="fill:#FECFAE;" d="M277.885,260.171c-0.301-1.332-0.819-2.418-1.784-1.642c-0.134,0.392-1.082,1.118-1.339,1.276
						c-0.257,0.157-0.485,1.416-0.205,1.907l0.162,0.548c-0.199,0.396-0.986,1.964-1.025,1.99l0.297,0.609l1.026,0.696l1.04-2.052
						c0.196-0.096,0.417-0.274,0.665-0.583C277.946,261.405,278.185,261.503,277.885,260.171z"/>
					<path style="fill:#4F8BD3;" d="M255.827,251.701c-2.903-0.507-4.596,1.605-3.251,5.72
						C253.922,261.537,255.827,251.701,255.827,251.701z"/>
					<path style="fill:#3B6096;" d="M261.958,253.303c-0.933,0.841-4.645,0.179-4.579-1.199c-0.85-0.333-1.456-0.624-2.333-0.397
						c-2.081,0.537-3.031,3.301-3.243,7.394c-0.247,4.777,1.424,5.802,1.274,10.627c-0.078,2.522-1.243,4.79-1.844,8.124
						c-0.22,1.221,0.238,3.445,1.186,4.246c7.156,6.054,14.611,0.276,14.581-1.115c-0.083-3.782-0.258-13.576,0.031-14.992
						c0.553-1.518,0.936-3.077,1.149-4.781c0.299-2.39-0.041-3.293-0.646-4.032C266.266,255.632,261.958,253.303,261.958,253.303z"
						/>
					<g>
						<path style="fill:#FECFAE;" d="M266.078,242.187c0.66,1.451,0.014,2.214,0.065,3.282c0,0.945,0.71,4.894-1.153,5.313
							c-1.317,0.297-2.195,0.144-2.195,0.144l-0.957,2.716c-0.527,1.033-4.891,0.582-4.541-1.592l0.212-1.907
							c-0.992-0.458-2.824-2.099-2.824-5.343c0-3.244,3.458-5.743,6.576-5.743S265.895,241.786,266.078,242.187z"/>
						<path style="fill:#276EAF;" d="M263.086,249.53c-0.103,0.256-0.269,0.523-0.475,0.75c-0.395,0.437,0.333,0.478-0.728,1.019
							c-0.824,0.42-2.131,0.285-2.842,0.273c-0.194-0.003-0.388-0.048-0.543-0.165c-0.201-0.151-0.662-0.241-1.066-1.039
							c-0.726-0.961-1.744-0.967-2.597-2.929c0,0-0.799-1.049-0.631-2.073c0.017-0.106,0.023-0.216,0.006-0.322
							c-0.889-5.365,2.795-6.141,6.321-8.256c5.465-3.278,8.301,3.595,7.429,5.741c-0.873,2.146-3.853,2.138-4.454,2.907
							C262.872,246.245,263.214,249.213,263.086,249.53z"/>
					</g>
					<path style="fill:#4F8BD3;" d="M267.751,257.295c1.257,2.218,2.153,6.771,3.533,9.403c0,0,1.245-1.702,2.901-3.067
						c0.775-0.023,1.103,0.752,1.103,1.254c-0.45,1.556-0.679,3.401-3.892,5.895c-0.32,0.249-0.77,0.244-1.081-0.016
						c-1.449-1.214-5.416-4.948-7.229-10.752c-0.403-0.79-1.235-3.235,1.064-4.276C265.908,254.94,267.123,256.186,267.751,257.295z
						"/>
				</g>
				<line style="fill:#876DA5;" x1="273.504" y1="242.505" x2="274.841" y2="240.56"/>
				<g>
					<path style="fill:#23456D;" d="M262.306,279.953c-4.181,0-9.682-1.902-10.751-3.932c-0.356-0.675-0.255-1.367,0.284-1.948
						c0.137-0.147,0.367-0.155,0.516-0.02c0.147,0.138,0.156,0.368,0.02,0.516c-0.331,0.357-0.387,0.71-0.175,1.112
						c1.086,2.06,7.714,4.016,11.62,3.439c1.125-0.167,2.516-0.625,2.752-1.857c0.038-0.196,0.221-0.324,0.428-0.289
						c0.197,0.038,0.327,0.229,0.289,0.428c-0.176,0.911-0.901,2.074-3.361,2.44C263.421,279.918,262.875,279.953,262.306,279.953z"
						/>
				</g>
				<g>
					<path style="fill:#23456D;" d="M261.155,289.933c-0.05,0-0.1-0.001-0.15-0.002c-0.201-0.004-0.361-0.17-0.356-0.372
						c0.004-0.198,0.166-0.357,0.364-0.357c0.043,0.005,0.095,0.001,0.141,0.001c1.439,0,2.564-0.478,3.341-1.422
						c2.279-2.768,1.047-8.623,0.993-8.871c-0.043-0.197,0.082-0.391,0.279-0.434c0.198-0.045,0.391,0.083,0.434,0.279
						c0.142,0.657,1.316,6.504-1.144,9.489C264.134,289.365,262.822,289.933,261.155,289.933z"/>
				</g>
			</g>
			<path style="fill:#276EAF;" d="M192.896,161.781c0,0-0.252-0.132-0.555,0.304c-0.303,0.437-1.128,1.796-1.177,2.111
				c-0.049,0.315,7.048,5.096,8.083,5.026c1.034-0.07-2.397-4.77-3.734-5.414C194.176,163.163,192.896,161.781,192.896,161.781z"/>
			<path style="fill:#E8B089;" d="M193.793,160.321l-0.786,1.409c-0.389,0.7-0.105,1.583,0.62,1.924l0,0
				c0.623,0.293,1.366,0.083,1.744-0.491l1.512-2.371L193.793,160.321z"/>
			<path style="fill:#88C9FF;" d="M196.04,116.354c-5.107,4.69,5.008,19.768,7.723,23.283c0,0-7.043,8.93-10.605,21.213
				c0,0,1.188,1.358,3.155,1.341c0,0,11.884-13.738,13.586-21.762c0,0-0.919-10.763-3.967-23.281L196.04,116.354z"/>
			<g>
				<path style="fill:#3688BA;" d="M205.887,90.042c-3.495,1.363-7.507,2.638-8.552,12.014c-0.288,2.581-1.32,6.889-1.872,14.624
					c4.285,6.183,11.461,2.244,16.635-2.011c-0.473-6.602,7.405-16.895,2.915-23.488C213.776,90.249,210.964,88.344,205.887,90.042z
					"/>
				<g>
					<path style="fill:#EAB18B;" d="M213.519,93.237c-0.026,1.622-2.133,2.904-4.705,2.862c-2.572-0.042-4.635-1.391-4.609-3.013
						c0.026-1.622,2.133-2.904,4.705-2.862C211.482,90.265,213.545,91.614,213.519,93.237z"/>
					<path style="fill:#EAB18B;" d="M207.505,86.819c0,0-0.455,2.216-1.602,4.398c0.606,1.809,4.604,3.821,5.681,2.176
						c0,0,0.217-1.647,1.163-2.628C213.693,89.784,207.505,86.819,207.505,86.819z"/>
					<path style="fill:#D69570;" d="M207.505,86.819c0,0-0.087,0.424-0.281,1.085c0.718,2.949,2.678,4.298,4.461,4.989
						c0.138-0.565,0.444-1.487,1.062-2.128C213.693,89.784,207.505,86.819,207.505,86.819z"/>
					<g>
						<g>
							<path style="fill:#EAB18B;" d="M216.558,80.093c0,0,0.754,2.61,0.149,5.094c-0.177,0.308,0.234,1.08-0.24,2.427
								c-0.344,0.978-1.042,2.965-1.398,3.979c-0.132,0.375-0.493,0.619-0.89,0.594c-2.099-0.135-5.369-0.713-6.944-4.48
								c0,0-0.809-1.601-1.293-1.894c-0.484-0.293-1.903-3.42-1.386-5.545c0.548-2.252,2.623-5.365,7.247-4.24
								C215.569,76.943,216.558,80.093,216.558,80.093z"/>
						</g>
						<path style="fill:#276EAF;" d="M207.236,87.706c0.813-0.886,0.229-2.748-0.012-3.582c-0.637-2.232,1.305-1.989,2.811-1.199
							s-0.166-2.553,7.038-2.128c3.327,0.197,3.777-7.446,0.464-6.747c-3.624,0.765-4.805,0.851-7.502-0.227
							c-2.697-1.078-6.563,2.165-6.7,7.046C203.738,84.623,205.903,86.238,207.236,87.706z"/>
					</g>
				</g>
			</g>
			<path style="fill:none;stroke:#845328;stroke-width:0.7294;stroke-linecap:round;stroke-miterlimit:10;" d="M204.631,241.465"/>
			<path style="fill:none;stroke:#845328;stroke-width:0.7294;stroke-linecap:round;stroke-miterlimit:10;" d="M203.579,238.91"/>
			<g>
				<g>
					<path style="fill:#23456D;" d="M205.008,236.913c-0.021,0-0.043-0.002-0.065-0.006c-0.198-0.036-0.329-0.226-0.293-0.424
						l25.406-139.52c0.035-0.198,0.222-0.326,0.424-0.294c0.198,0.036,0.329,0.226,0.293,0.424l-25.406,139.52
						C205.335,236.789,205.181,236.913,205.008,236.913z"/>
				</g>
			</g>
			<g>
				<g>
					<g>
						<path style="fill:#23456D;" d="M203.195,239.004c0.042-1.458,0.775-2.582,1.704-2.582c0.957,0,1.706,1.192,1.706,2.713
							c0,1.522-0.749,2.713-1.706,2.713c-0.183,0-0.359-0.044-0.523-0.125l0.523-0.643c0.042,0,0.083-0.007,0.126-0.021
							c0.406-0.137,0.813-0.915,0.813-1.924c0-1.113-0.495-1.945-0.938-1.945c-0.401,0-0.845,0.682-0.925,1.638L203.195,239.004z"/>
					</g>
				</g>
			</g>
			<path style="fill:#EAB18B;" d="M222.144,105.518l2.158-0.59c0,0,1.474-1.98,1.944-2.404c0.471-0.424,2.201-0.896,3.199-1.167
				c1.562-0.424,1.591,2.461,1.76,3.272c0.169,0.811-0.123,1.655-1.565,2.012c-1.343,0.332-1.526,0.41-2.183,0.399
				c-0.656-0.011-1.987-0.148-2.304-0.066c-0.465,0.119-2.234,0.947-2.234,0.947L222.144,105.518z"/>
			<path style="fill:#60B7E2;" d="M199.587,94.236c-1.572,0.79-2.028,3.825-1.42,5.466c0.608,1.641,6.072,12.224,12.526,13.008
				c1.487-0.072,11.758-3.587,13.916-5.41l-0.448-2.401c0,0-6.626-0.018-13.468,3.252c0,0-3.764-10.237-7.359-13.683
				C203.334,94.469,201.617,93.216,199.587,94.236z"/>
			<path style="fill:#EAB18B;" d="M229.928,96.161c-0.745,0.562-1.383,3.283,0.654,3.298c2.037,0.015,0.775-1.58,0.76-2.279
				C231.326,96.48,229.928,96.161,229.928,96.161z"/>
			<g>
				<path style="fill:#2069A5;" d="M311.857,195.781c-0.162,1.502,0.485,2.804,1.445,2.907c0.96,0.103,1.87-1.031,2.032-2.533
					c0.162-1.503-0.485-2.804-1.445-2.908C312.929,193.144,312.019,194.278,311.857,195.781z"/>
				<g>
					<path style="fill:#2A81D8;" d="M319.29,191.588 M315.361,195.747c0,0,0.024-0.87-0.317-1.544
						c-0.36,0.261-0.715,0.477-1.091,0.667c-1.451,0.731-2.807,0.803-3.819,0.203c-1.011-0.6-1.597-1.825-1.651-3.449
						c-0.058-1.744,0.503-3.702,1.577-5.513c1.075-1.811,2.525-3.241,4.084-4.026c0.801-0.403,1.572-0.606,2.273-0.606
						c0.57,0,1.092,0.134,1.546,0.403c1.011,0.6,1.598,1.825,1.652,3.449c0.042,1.29-0.25,2.689-0.842,4.068l1.272,0.734
						c0.719-1.622,1.079-3.301,1.028-4.85c-0.07-2.139-0.91-3.792-2.365-4.655c-1.453-0.862-3.308-0.808-5.219,0.155
						c-1.804,0.909-3.467,2.537-4.682,4.585c-1.215,2.048-1.847,4.287-1.781,6.306c0.071,2.139,0.911,3.792,2.365,4.655
						c0.686,0.407,1.46,0.61,2.287,0.61c0.928,0,1.922-0.255,2.933-0.764C314.866,196.042,315.109,195.906,315.361,195.747"/>
				</g>
			</g>
			<g>
				<path style="fill:#2069A5;" d="M288.314,182.159c-0.162,1.502,0.485,2.804,1.445,2.908c0.96,0.103,1.87-1.031,2.032-2.533
					c0.162-1.502-0.485-2.804-1.445-2.908C289.386,179.523,288.476,180.657,288.314,182.159z"/>
				<g>
					<path style="fill:#2A81D8;" d="M295.747,177.966 M291.818,182.125c0,0,0.024-0.87-0.317-1.544
						c-0.36,0.261-0.715,0.477-1.091,0.667c-1.451,0.731-2.807,0.803-3.819,0.203c-1.011-0.6-1.598-1.825-1.651-3.449
						c-0.058-1.745,0.503-3.702,1.577-5.514c1.075-1.811,2.525-3.241,4.084-4.026c0.801-0.403,1.572-0.606,2.273-0.606
						c0.569,0,1.092,0.134,1.546,0.403c1.011,0.6,1.598,1.825,1.652,3.449c0.042,1.29-0.253,2.697-0.844,4.075l1.274,0.726
						c0.719-1.622,1.079-3.301,1.028-4.849c-0.07-2.139-0.91-3.792-2.365-4.655c-1.453-0.862-3.308-0.808-5.219,0.155
						c-1.804,0.909-3.467,2.537-4.682,4.585c-1.215,2.048-1.847,4.287-1.781,6.306c0.071,2.139,0.911,3.793,2.365,4.655
						c0.686,0.407,1.46,0.61,2.287,0.61c0.928,0,1.922-0.255,2.933-0.764C291.324,182.421,291.566,182.284,291.818,182.125"/>
				</g>
			</g>
			<g>
				<path style="fill:#2069A5;" d="M264.689,168.491c-0.162,1.502,0.485,2.804,1.445,2.908c0.96,0.103,1.87-1.031,2.032-2.533
					c0.162-1.502-0.485-2.804-1.445-2.908C265.761,165.855,264.851,166.989,264.689,168.491z"/>
				<g>
					<path style="fill:#2A81D8;" d="M272.122,164.298 M268.193,168.458c0,0,0.024-0.87-0.317-1.544
						c-0.36,0.261-0.715,0.477-1.092,0.667c-1.451,0.731-2.807,0.803-3.819,0.203c-1.011-0.6-1.597-1.825-1.651-3.449
						c-0.058-1.744,0.503-3.702,1.577-5.513c1.075-1.811,2.525-3.241,4.084-4.026c0.801-0.403,1.572-0.606,2.273-0.606
						c0.57,0,1.092,0.134,1.546,0.403c1.011,0.6,1.598,1.825,1.652,3.449c0.042,1.29-0.253,2.697-0.844,4.075l1.274,0.726
						c0.719-1.622,1.079-3.301,1.028-4.849c-0.07-2.139-0.91-3.793-2.365-4.655c-1.453-0.862-3.308-0.808-5.219,0.155
						c-1.804,0.909-3.467,2.537-4.682,4.585c-1.215,2.048-1.847,4.287-1.781,6.306c0.071,2.139,0.911,3.792,2.365,4.655
						c0.686,0.407,1.46,0.61,2.287,0.61c0.928,0,1.922-0.255,2.933-0.764C267.699,168.753,267.941,168.616,268.193,168.458"/>
				</g>
			</g>
			<g>
				<path style="fill:#2069A5;" d="M241.039,154.839c-0.162,1.502,0.485,2.804,1.445,2.907c0.96,0.103,1.87-1.031,2.032-2.533
					c0.162-1.503-0.485-2.804-1.445-2.908S241.202,153.336,241.039,154.839z"/>
				<g>
					<path style="fill:#2A81D8;" d="M248.472,150.646 M244.543,154.805c0,0,0.024-0.87-0.317-1.544
						c-0.36,0.261-0.715,0.477-1.091,0.667c-1.451,0.731-2.807,0.803-3.819,0.203c-1.011-0.6-1.597-1.825-1.651-3.449
						c-0.058-1.745,0.503-3.702,1.577-5.514c1.075-1.811,2.525-3.241,4.084-4.026c0.801-0.403,1.572-0.606,2.273-0.606
						c0.57,0,1.092,0.134,1.546,0.403c1.011,0.6,1.598,1.825,1.651,3.449c0.043,1.29-0.253,2.697-0.844,4.075l1.274,0.726
						c0.719-1.622,1.079-3.301,1.028-4.85c-0.071-2.139-0.91-3.793-2.365-4.655c-1.453-0.862-3.308-0.808-5.219,0.155
						c-1.804,0.908-3.467,2.537-4.682,4.585c-1.215,2.048-1.847,4.287-1.781,6.306c0.071,2.139,0.911,3.793,2.365,4.655
						c0.686,0.407,1.46,0.61,2.287,0.61c0.928,0,1.922-0.255,2.933-0.764C244.049,155.1,244.291,154.964,244.543,154.805"/>
				</g>
			</g>
			<g>
				<g>
					<g>
						<path style="fill:#23456D;" d="M287.046,181.792c0.008-0.199,0.086-0.379,0.224-0.516c0.312-0.308,0.781-0.286,0.918-0.271
							c0.769,0.096,1.156,0.953,1.018,2.239c-0.078,0.73-0.425,2.077-1.178,2.077c-0.019,0-0.039-0.001-0.058-0.003
							c-0.836-0.076-0.813-1.077-0.799-1.675c0,0,0.006-0.282,0.011-0.305l0.723,0.071l-0.004,0.251
							c-0.006,0.251-0.021,0.917,0.136,0.931c0.202-0.127,0.598-1.395,0.429-2.311c-0.043-0.236-0.141-0.524-0.36-0.551
							c-0.138-0.014-0.278,0.022-0.321,0.065c0.004,0.048-0.001,0.096-0.014,0.142C287.769,181.937,287.426,181.922,287.046,181.792
							z"/>
					</g>
				</g>
			</g>
			<polygon style="fill:#2974B7;" points="323.656,232.617 326.649,232.755 332.951,197.593 329.597,199.418 			"/>
		</g>
	</g>
	<g>
		<path style="fill:#54C0EF;" d="M99.93,77.5H44.797c-1.925,0-3.5-1.575-3.5-3.5l0,0c0-1.925,1.575-3.5,3.5-3.5H99.93
			c1.925,0,3.5,1.575,3.5,3.5l0,0C103.43,75.925,101.855,77.5,99.93,77.5z"/>
		
			<text transform="matrix(1 0 0 1 41.2969 58.1462)" style="fill:#508ED1; font-family:'AcherusGrotesque-Regular'; font-size:18.177px;">Planning Schedule Concept </text>
	</g>
</g>
<g id="DESIGNED_BY_FREEPIK">
	<g>
		<g id="XMLID_1_">
			<g id="XMLID_20_">
				<path id="XMLID_28_" style="fill:#A5B7C6;" d="M260.104,465.465c-0.432,0.443-0.803,0.931-1.108,1.453l-0.465-0.241
					c-0.067-0.298-0.349-0.503-0.659-0.466c-0.331,0.039-0.568,0.339-0.529,0.67s0.339,0.568,0.67,0.529
					c0.065-0.008,0.127-0.026,0.184-0.052l0.452,0.234c-0.251,0.554-0.433,1.139-0.539,1.744l0.746,0.132
					c0.23-1.306,0.85-2.507,1.792-3.473L260.104,465.465z"/>
				<path id="XMLID_27_" style="fill:#A5B7C6;" d="M265.592,463.163c-0.171,0-0.341,0.006-0.51,0.017l-0.074-0.626
					c0.188-0.149,0.296-0.389,0.266-0.645c-0.046-0.393-0.402-0.674-0.795-0.628s-0.674,0.402-0.628,0.795
					c0.03,0.254,0.189,0.461,0.405,0.564l0.073,0.624c-0.714,0.116-1.403,0.332-2.06,0.646l0.327,0.684
					c0.934-0.447,1.942-0.673,2.995-0.673c0.496,0,0.993,0.053,1.475,0.158l0.161-0.741
					C266.693,463.222,266.142,463.163,265.592,463.163z"/>
				<path id="XMLID_26_" style="fill:#A5B7C6;" d="M272.194,465.711c0.331-0.04,0.566-0.341,0.525-0.672
					c-0.04-0.331-0.341-0.566-0.672-0.526c-0.309,0.038-0.535,0.304-0.53,0.609l-0.416,0.363c-0.418-0.43-0.89-0.813-1.408-1.139
					l-0.404,0.641c1.134,0.715,2.021,1.726,2.563,2.925l0.69-0.313c-0.251-0.554-0.568-1.072-0.942-1.545l0.402-0.351
					C272.065,465.716,272.129,465.719,272.194,465.711z"/>
				<path id="XMLID_25_" style="fill:#A5B7C6;" d="M265.044,473.372c-0.386,0.023-0.775,0.035-1.157,0.035
					c-0.88,0-1.733-0.061-2.478-0.179c-0.39-0.062-0.846-0.155-1.27-0.292c1.046,1.861,3.069,3.125,5.388,3.125
					c2.855,0,5.262-1.916,5.95-4.504c-0.682,0.449-1.505,0.825-2.459,1.123C267.839,473.047,266.464,473.286,265.044,473.372z"/>
				<path id="XMLID_21_" style="fill:#A5B7C6;" d="M265.592,464.68c-3.352,0-6.08,2.666-6.08,5.943c0,0.426,0.046,0.849,0.137,1.261
					c0.673,0.483,2.706,0.89,5.347,0.731c2.879-0.173,5.297-0.957,6.672-2.159c-0.005-0.195-0.021-0.39-0.045-0.582
					C271.244,466.913,268.651,464.68,265.592,464.68z M263.432,471.194c-1.02,0-1.85-0.83-1.85-1.85c0-1.02,0.83-1.85,1.85-1.85
					c1.02,0,1.85,0.83,1.85,1.85C265.282,470.365,264.452,471.194,263.432,471.194z M268.17,470.286c-0.75,0-1.36-0.61-1.36-1.36
					s0.61-1.361,1.36-1.361c0.75,0,1.361,0.61,1.361,1.361S268.92,470.286,268.17,470.286z"/>
			</g>
			<path id="XMLID_18_" style="fill:#EEF5FF;" d="M281.595,466.547c-0.295-0.116-0.806-0.309-1.382-0.237
				c-0.551,0.069-0.844,0.341-0.844,1.007v0.866h2.228v1.717h-2.228v5.455h-1.932v-5.455h-1.34v-1.717h1.34v-0.888
				c0-1.68,0.895-2.783,2.568-2.783c0.642,0,1.157,0.122,1.59,0.308L281.595,466.547z"/>
			<path id="XMLID_16_" style="fill:#EEF5FF;" d="M286.298,469.879c-0.177-0.03-0.358-0.046-0.526-0.046
				c-0.896,0-1.51,0.548-1.51,1.614v3.908h-1.932v-7.172h1.873v0.785c0.451-0.673,1.14-0.977,2.021-0.977
				c0.414,0,0.848,0.128,1.094,0.337L286.298,469.879z"/>
			<path id="XMLID_13_" style="fill:#EEF5FF;" d="M293.965,471.757c0,0.222-0.015,0.489-0.037,0.651h-5.085
				c0.207,1.036,0.933,1.488,1.843,1.488c0.622,0,1.295-0.252,1.813-0.688l1.133,1.243c-0.814,0.748-1.85,1.088-3.057,1.088
				c-2.198,0-3.723-1.495-3.723-3.753c0-2.258,1.48-3.797,3.626-3.797C292.544,467.99,293.958,469.522,293.965,471.757z
				 M288.851,471.091h3.175c-0.178-0.918-0.733-1.436-1.562-1.436C289.554,469.655,289.021,470.203,288.851,471.091z"/>
			<path id="XMLID_10_" style="fill:#EEF5FF;" d="M301.618,471.757c0,0.222-0.015,0.489-0.037,0.651h-5.085
				c0.207,1.036,0.932,1.488,1.843,1.488c0.622,0,1.295-0.252,1.813-0.688l1.132,1.243c-0.814,0.748-1.85,1.088-3.057,1.088
				c-2.198,0-3.723-1.495-3.723-3.753c0-2.258,1.48-3.797,3.627-3.797C300.197,467.99,301.611,469.522,301.618,471.757z
				 M296.504,471.091h3.175c-0.178-0.918-0.733-1.436-1.562-1.436C297.207,469.655,296.674,470.203,296.504,471.091z"/>
			<path id="XMLID_7_" style="fill:#EEF5FF;" d="M309.964,471.764c0,2.154-1.495,3.775-3.471,3.775
				c-0.962,0-1.643-0.378-2.109-0.933v3.708h-1.924v-10.133h1.887v0.792c0.466-0.585,1.155-0.984,2.139-0.984
				C308.469,467.99,309.964,469.61,309.964,471.764z M304.287,471.764c0,1.132,0.747,1.976,1.843,1.976
				c1.14,0,1.85-0.881,1.85-1.976c0-1.095-0.711-1.976-1.85-1.976C305.035,469.788,304.287,470.632,304.287,471.764z"/>
			<path id="XMLID_4_" style="fill:#EEF5FF;" d="M313.068,465.836c0,0.696-0.54,1.229-1.236,1.229c-0.696,0-1.229-0.533-1.229-1.229
				c0-0.696,0.533-1.243,1.229-1.243C312.527,464.592,313.068,465.14,313.068,465.836z M312.809,475.354h-1.932v-7.172h1.932
				V475.354z"/>
			<path id="XMLID_2_" style="fill:#EEF5FF;" d="M316.032,470.736l2.702-2.554h2.368l-3.479,3.375l3.501,3.797h-2.376l-2.716-2.901
				v2.901H314.1v-10.658h1.932V470.736z"/>
		</g>
		<g>
			<path style="fill:#EEF5FF;" d="M184.412,475.289v-1.055c-0.527,0.718-1.391,1.23-2.387,1.23c-1.846,0-3.149-1.406-3.149-3.706
				c0-2.256,1.289-3.721,3.149-3.721c0.952,0,1.816,0.469,2.387,1.245v-3.765h1.099v9.77H184.412z M184.412,473.37v-3.208
				c-0.395-0.615-1.245-1.143-2.124-1.143c-1.421,0-2.27,1.172-2.27,2.739c0,1.567,0.85,2.724,2.27,2.724
				C183.168,474.483,184.017,473.986,184.412,473.37z"/>
			<path style="fill:#EEF5FF;" d="M186.932,471.744c0-2.051,1.465-3.706,3.486-3.706c2.139,0,3.398,1.67,3.398,3.794v0.279h-5.727
				c0.088,1.333,1.025,2.446,2.549,2.446c0.806,0,1.626-0.322,2.182-0.894l0.527,0.718c-0.703,0.703-1.655,1.084-2.812,1.084
				C188.441,475.465,186.932,473.956,186.932,471.744z M190.404,468.947c-1.509,0-2.256,1.274-2.314,2.358h4.643
				C192.718,470.25,192.015,468.947,190.404,468.947z"/>
			<path style="fill:#EEF5FF;" d="M194.607,474.351l0.571-0.791c0.469,0.542,1.362,1.011,2.329,1.011c1.084,0,1.67-0.513,1.67-1.216
				c0-1.714-4.38-0.659-4.38-3.281c0-1.098,0.952-2.036,2.636-2.036c1.201,0,2.051,0.454,2.622,1.026l-0.513,0.762
				c-0.424-0.513-1.201-0.894-2.109-0.894c-0.967,0-1.567,0.483-1.567,1.113c0,1.552,4.38,0.527,4.38,3.281
				c0,1.187-0.952,2.138-2.783,2.138C196.306,475.465,195.325,475.113,194.607,474.351z"/>
			<path style="fill:#EEF5FF;" d="M201.477,466.471c0-0.41,0.337-0.747,0.732-0.747c0.41,0,0.747,0.337,0.747,0.747
				c0,0.41-0.337,0.732-0.747,0.732C201.814,467.203,201.477,466.881,201.477,466.471z M201.667,475.289v-7.075h1.099v7.075H201.667
				z"/>
			<path style="fill:#EEF5FF;" d="M204.582,477.105l0.556-0.82c0.586,0.703,1.289,0.967,2.3,0.967c1.172,0,2.27-0.571,2.27-2.124
				v-1.011c-0.513,0.718-1.377,1.26-2.373,1.26c-1.845,0-3.149-1.377-3.149-3.662c0-2.27,1.289-3.677,3.149-3.677
				c0.952,0,1.802,0.469,2.373,1.245v-1.069h1.099v6.87c0,2.344-1.641,3.076-3.369,3.076
				C206.237,478.16,205.417,477.926,204.582,477.105z M209.709,473.253v-3.091c-0.381-0.615-1.23-1.143-2.109-1.143
				c-1.421,0-2.27,1.128-2.27,2.695c0,1.553,0.849,2.695,2.27,2.695C208.478,474.41,209.328,473.868,209.709,473.253z"/>
			<path style="fill:#EEF5FF" d="M217.413,475.289v-4.629c0-1.245-0.63-1.641-1.582-1.641c-0.865,0-1.685,0.527-2.095,1.099v5.17
				h-1.099v-7.075h1.099v1.025c0.498-0.586,1.464-1.201,2.519-1.201c1.48,0,2.256,0.747,2.256,2.285v4.966H217.413z"/>
			<path style="fill:#EEF5FF;" d="M219.932,471.744c0-2.051,1.465-3.706,3.486-3.706c2.139,0,3.398,1.67,3.398,3.794v0.279h-5.727
				c0.088,1.333,1.025,2.446,2.549,2.446c0.806,0,1.626-0.322,2.183-0.894l0.527,0.718c-0.703,0.703-1.655,1.084-2.812,1.084
				C221.441,475.465,219.932,473.956,219.932,471.744z M223.404,468.947c-1.509,0-2.256,1.274-2.314,2.358h4.643
				C225.718,470.25,225.015,468.947,223.404,468.947z"/>
			<path style="fill:#EEF5FF;" d="M233.35,475.289v-1.055c-0.527,0.718-1.392,1.23-2.388,1.23c-1.846,0-3.149-1.406-3.149-3.706
				c0-2.256,1.289-3.721,3.149-3.721c0.952,0,1.817,0.469,2.388,1.245v-3.765h1.098v9.77H233.35z M233.35,473.37v-3.208
				c-0.396-0.615-1.245-1.143-2.124-1.143c-1.421,0-2.27,1.172-2.27,2.739c0,1.567,0.849,2.724,2.27,2.724
				C232.105,474.483,232.954,473.986,233.35,473.37z"/>
			<path style="fill:#EEF5FF;" d="M239.692,475.289v-9.77h1.098v3.765c0.572-0.776,1.421-1.245,2.388-1.245
				c1.845,0,3.149,1.465,3.149,3.721c0,2.299-1.304,3.706-3.149,3.706c-0.996,0-1.86-0.513-2.388-1.23v1.055H239.692z
				 M242.9,474.483c1.436,0,2.286-1.157,2.286-2.724c0-1.568-0.85-2.739-2.286-2.739c-0.864,0-1.728,0.527-2.109,1.143v3.208
				C241.171,473.986,242.036,474.483,242.9,474.483z"/>
			<path style="fill:#EEF5FF;" d="M247.529,477.061c0.161,0.073,0.425,0.117,0.601,0.117c0.483,0,0.805-0.161,1.055-0.747
				l0.469-1.069l-2.959-7.148h1.187l2.358,5.8l2.344-5.8h1.201l-3.545,8.51c-0.425,1.025-1.143,1.421-2.08,1.435
				c-0.234,0-0.601-0.044-0.805-0.103L247.529,477.061z"/>
		</g>
	</g>
</g>
</svg>
